<svg width="300" height="250" viewBox="0 0 300 250" fill="none" xmlns="http://www.w3.org/2000/svg"><path fill="#CCC" d="M0 0h300v250H0z"/><path d="m98.111 130 3.276-7.512h-3.672v1.56h-.9v-2.424h5.592v.888L99.191 130h-1.08Zm11.563 0h-5.592v-1.032l2.796-2.52a6.474 6.474 0 0 0 1.008-1.128c.264-.392.396-.804.396-1.236v-.144c0-.504-.132-.892-.396-1.164-.264-.28-.656-.42-1.176-.42-.512 0-.908.132-1.188.396-.272.256-.476.6-.612 1.032l-.9-.336c.08-.248.188-.488.324-.72.144-.24.324-.452.54-.636.216-.184.476-.332.78-.444a3.19 3.19 0 0 1 1.08-.168c.416 0 .784.06 1.104.18.328.12.6.288.816.504.224.216.392.472.504.768.12.296.18.62.18.972 0 .32-.048.62-.144.9-.088.28-.216.548-.384.804a4.96 4.96 0 0 1-.588.756c-.224.24-.476.48-.756.72l-2.34 2.04h4.548V130Zm4.352.144c-.488 0-.916-.06-1.284-.18a2.779 2.779 0 0 1-.924-.516 2.192 2.192 0 0 1-.552-.768 2.53 2.53 0 0 1-.18-.96c0-.576.156-1.032.468-1.368.312-.336.724-.572 1.236-.708v-.096a2.231 2.231 0 0 1-1.068-.732c-.256-.344-.384-.756-.384-1.236 0-.64.236-1.148.708-1.524.472-.384 1.132-.576 1.98-.576.848 0 1.508.192 1.98.576.472.376.708.884.708 1.524 0 .48-.132.892-.396 1.236-.256.336-.608.58-1.056.732v.096c.512.136.924.372 1.236.708.312.336.468.792.468 1.368 0 .344-.064.664-.192.96-.12.296-.304.552-.552.768a2.779 2.779 0 0 1-.924.516c-.36.12-.784.18-1.272.18Zm0-.852c.592 0 1.056-.132 1.392-.396.336-.264.504-.636.504-1.116v-.264c0-.48-.168-.852-.504-1.116-.328-.264-.792-.396-1.392-.396-.6 0-1.068.132-1.404.396-.328.264-.492.636-.492 1.116v.264c0 .48.168.852.504 1.116.336.264.8.396 1.392.396Zm0-4.104c.544 0 .956-.116 1.236-.348.288-.232.432-.564.432-.996v-.168c0-.432-.148-.764-.444-.996-.288-.232-.696-.348-1.224-.348s-.94.116-1.236.348c-.288.232-.432.564-.432.996v.168c0 .432.14.764.42.996.288.232.704.348 1.248.348Zm4.327 4.812 2.304-3.144-2.244-3.048h1.152l.936 1.308.744 1.032h.048l.72-1.032.924-1.308h1.104l-2.268 3.036 2.328 3.156h-1.152l-1.044-1.452-.708-.984h-.048l-.684.984-1.008 1.452h-1.104Zm12.895-5.304c0 .624-.096 1.212-.288 1.764a6.661 6.661 0 0 1-.72 1.5 7.293 7.293 0 0 1-.984 1.2c-.352.344-.7.624-1.044.84h-1.296c.456-.328.86-.648 1.212-.96.36-.312.676-.636.948-.972.272-.344.5-.708.684-1.092.184-.392.336-.832.456-1.32l-.06-.024a2.86 2.86 0 0 1-.804.864c-.32.224-.74.336-1.26.336-.368 0-.708-.06-1.02-.18a2.301 2.301 0 0 1-.792-.516 2.524 2.524 0 0 1-.516-.804c-.12-.32-.18-.68-.18-1.08 0-.408.064-.78.192-1.116.136-.344.328-.636.576-.876.248-.248.544-.44.888-.576.352-.136.74-.204 1.164-.204.44 0 .836.076 1.188.228.352.144.648.356.888.636.248.272.436.608.564 1.008.136.4.204.848.204 1.344Zm-2.832 1.308c.576 0 1.02-.156 1.332-.468.32-.312.48-.752.48-1.32v-.096c0-.568-.16-1.008-.48-1.32-.312-.312-.756-.468-1.332-.468-.576 0-1.024.156-1.344.468-.312.312-.468.752-.468 1.32v.096c0 .568.156 1.008.468 1.32.32.312.768.468 1.344.468Zm7.196 4.14c-.512 0-.952-.096-1.32-.288a2.51 2.51 0 0 1-.912-.852c-.24-.368-.416-.82-.528-1.356a9.03 9.03 0 0 1-.168-1.836c0-.68.056-1.288.168-1.824.112-.544.288-1 .528-1.368a2.41 2.41 0 0 1 .912-.84c.368-.2.808-.3 1.32-.3s.952.1 1.32.3c.368.192.672.472.912.84s.416.824.528 1.368c.112.536.168 1.144.168 1.824 0 .688-.056 1.3-.168 1.836-.112.536-.288.988-.528 1.356a2.51 2.51 0 0 1-.912.852c-.368.192-.808.288-1.32.288Zm0-.876c.336 0 .624-.064.864-.192.24-.136.432-.324.576-.564.152-.24.264-.528.336-.864a5.64 5.64 0 0 0 .108-1.152v-1.368c0-.416-.036-.796-.108-1.14a2.635 2.635 0 0 0-.336-.876 1.468 1.468 0 0 0-.576-.552 1.726 1.726 0 0 0-.864-.204c-.336 0-.624.068-.864.204-.24.128-.436.312-.588.552-.144.24-.252.532-.324.876a5.575 5.575 0 0 0-.108 1.14v1.368c0 .424.036.808.108 1.152.072.336.18.624.324.864.152.24.348.428.588.564.24.128.528.192.864.192Zm0-2.748c-.28 0-.476-.056-.588-.168a.578.578 0 0 1-.156-.408v-.264c0-.16.052-.296.156-.408.112-.112.308-.168.588-.168.28 0 .472.056.576.168a.555.555 0 0 1 .168.408v.264c0 .16-.056.296-.168.408-.104.112-.296.168-.576.168Zm6.679 1.848h1.548l-1.38 3.324h-.804l.636-3.324Zm14.547-3.192c.584 0 1.02-.128 1.308-.384.296-.264.444-.6.444-1.008v-.084c0-.448-.144-.784-.432-1.008-.28-.224-.648-.336-1.104-.336-.448 0-.812.1-1.092.3a2.246 2.246 0 0 0-.672.768l-.756-.576c.104-.168.232-.332.384-.492a2.59 2.59 0 0 1 .528-.444 3.01 3.01 0 0 1 .708-.312c.272-.08.58-.12.924-.12.36 0 .696.048 1.008.144.312.088.584.224.816.408.232.176.412.396.54.66.136.264.204.564.204.9 0 .272-.044.516-.132.732-.08.216-.196.404-.348.564-.144.16-.316.296-.516.408-.2.112-.412.196-.636.252v.048c.232.048.456.128.672.24.216.104.408.244.576.42.168.168.3.376.396.624.104.24.156.516.156.828 0 .36-.072.692-.216.996a2.194 2.194 0 0 1-.588.768 2.76 2.76 0 0 1-.912.492c-.352.12-.744.18-1.176.18-.368 0-.696-.04-.984-.12a3.078 3.078 0 0 1-.756-.324 3.287 3.287 0 0 1-.576-.456 4.452 4.452 0 0 1-.432-.528l.756-.576c.112.168.228.32.348.456.12.136.256.256.408.36.16.096.34.172.54.228.2.056.432.084.696.084.592 0 1.044-.136 1.356-.408.32-.272.48-.66.48-1.164v-.096c0-.496-.156-.88-.468-1.152-.304-.272-.764-.408-1.38-.408h-.996v-.864h.924Zm7.555 4.968c-.512 0-.952-.096-1.32-.288a2.51 2.51 0 0 1-.912-.852c-.24-.368-.416-.82-.528-1.356a9.03 9.03 0 0 1-.168-1.836c0-.68.056-1.288.168-1.824.112-.544.288-1 .528-1.368a2.41 2.41 0 0 1 .912-.84c.368-.2.808-.3 1.32-.3s.952.1 1.32.3c.368.192.672.472.912.84s.416.824.528 1.368c.112.536.168 1.144.168 1.824 0 .688-.056 1.3-.168 1.836-.112.536-.288.988-.528 1.356a2.51 2.51 0 0 1-.912.852c-.368.192-.808.288-1.32.288Zm0-.876c.336 0 .624-.064.864-.192.24-.136.432-.324.576-.564.152-.24.264-.528.336-.864a5.64 5.64 0 0 0 .108-1.152v-1.368c0-.416-.036-.796-.108-1.14a2.635 2.635 0 0 0-.336-.876 1.468 1.468 0 0 0-.576-.552 1.726 1.726 0 0 0-.864-.204c-.336 0-.624.068-.864.204-.24.128-.436.312-.588.552-.144.24-.252.532-.324.876a5.575 5.575 0 0 0-.108 1.14v1.368c0 .424.036.808.108 1.152.072.336.18.624.324.864.152.24.348.428.588.564.24.128.528.192.864.192Zm0-2.748c-.28 0-.476-.056-.588-.168a.578.578 0 0 1-.156-.408v-.264c0-.16.052-.296.156-.408.112-.112.308-.168.588-.168.28 0 .472.056.576.168a.555.555 0 0 1 .168.408v.264c0 .16-.056.296-.168.408-.104.112-.296.168-.576.168Zm7.195 3.624c-.512 0-.952-.096-1.32-.288a2.51 2.51 0 0 1-.912-.852c-.24-.368-.416-.82-.528-1.356a9.03 9.03 0 0 1-.168-1.836c0-.68.056-1.288.168-1.824.112-.544.288-1 .528-1.368a2.41 2.41 0 0 1 .912-.84c.368-.2.808-.3 1.32-.3s.952.1 1.32.3c.368.192.672.472.912.84s.416.824.528 1.368c.112.536.168 1.144.168 1.824 0 .688-.056 1.3-.168 1.836-.112.536-.288.988-.528 1.356a2.51 2.51 0 0 1-.912.852c-.368.192-.808.288-1.32.288Zm0-.876c.336 0 .624-.064.864-.192.24-.136.432-.324.576-.564.152-.24.264-.528.336-.864a5.64 5.64 0 0 0 .108-1.152v-1.368c0-.416-.036-.796-.108-1.14a2.635 2.635 0 0 0-.336-.876 1.468 1.468 0 0 0-.576-.552 1.726 1.726 0 0 0-.864-.204c-.336 0-.624.068-.864.204-.24.128-.436.312-.588.552-.144.24-.252.532-.324.876a5.575 5.575 0 0 0-.108 1.14v1.368c0 .424.036.808.108 1.152.072.336.18.624.324.864.152.24.348.428.588.564.24.128.528.192.864.192Zm0-2.748c-.28 0-.476-.056-.588-.168a.578.578 0 0 1-.156-.408v-.264c0-.16.052-.296.156-.408.112-.112.308-.168.588-.168.28 0 .472.056.576.168a.555.555 0 0 1 .168.408v.264c0 .16-.056.296-.168.408-.104.112-.296.168-.576.168Zm4.328 3.48 2.304-3.144-2.244-3.048h1.152l.936 1.308.744 1.032h.048l.72-1.032.924-1.308h1.104l-2.268 3.036 2.328 3.156h-1.152l-1.044-1.452-.708-.984h-.048l-.684.984L177.02 130h-1.104Zm12.907 0h-5.592v-1.032l2.796-2.52a6.474 6.474 0 0 0 1.008-1.128c.264-.392.396-.804.396-1.236v-.144c0-.504-.132-.892-.396-1.164-.264-.28-.656-.42-1.176-.42-.512 0-.908.132-1.188.396-.272.256-.476.6-.612 1.032l-.9-.336c.08-.248.188-.488.324-.72.144-.24.324-.452.54-.636.216-.184.476-.332.78-.444a3.19 3.19 0 0 1 1.08-.168c.416 0 .784.06 1.104.18.328.12.6.288.816.504.224.216.392.472.504.768.12.296.18.62.18.972 0 .32-.048.62-.144.9-.088.28-.216.548-.384.804a4.96 4.96 0 0 1-.588.756c-.224.24-.476.48-.756.72l-2.34 2.04h4.548V130Zm6.763-7.5h-3.744l-.24 3.204h.084c.208-.28.44-.5.696-.66.256-.168.608-.252 1.056-.252.368 0 .704.06 1.008.18.312.112.58.28.804.504.224.224.4.496.528.816.128.312.192.672.192 1.08 0 .408-.064.784-.192 1.128a2.464 2.464 0 0 1-.564.876c-.248.24-.548.428-.9.564a3.31 3.31 0 0 1-1.2.204c-.352 0-.668-.04-.948-.12a2.903 2.903 0 0 1-.732-.324 3.103 3.103 0 0 1-.552-.456 4.452 4.452 0 0 1-.432-.528l.756-.576c.112.168.224.32.336.456.12.136.256.256.408.36.152.096.324.172.516.228.192.056.416.084.672.084.576 0 1.016-.156 1.32-.468.312-.312.468-.744.468-1.296v-.096c0-.552-.156-.984-.468-1.296-.312-.312-.76-.468-1.344-.468-.4 0-.712.068-.936.204a2.954 2.954 0 0 0-.6.504l-.852-.12.3-4.608h4.56v.876Zm4.784 7.644c-.512 0-.952-.096-1.32-.288a2.51 2.51 0 0 1-.912-.852c-.24-.368-.416-.82-.528-1.356a9.03 9.03 0 0 1-.168-1.836c0-.68.056-1.288.168-1.824.112-.544.288-1 .528-1.368a2.41 2.41 0 0 1 .912-.84c.368-.2.808-.3 1.32-.3s.952.1 1.32.3c.368.192.672.472.912.84s.416.824.528 1.368c.112.536.168 1.144.168 1.824 0 .688-.056 1.3-.168 1.836-.112.536-.288.988-.528 1.356a2.51 2.51 0 0 1-.912.852c-.368.192-.808.288-1.32.288Zm0-.876c.336 0 .624-.064.864-.192.24-.136.432-.324.576-.564.152-.24.264-.528.336-.864a5.64 5.64 0 0 0 .108-1.152v-1.368c0-.416-.036-.796-.108-1.14a2.635 2.635 0 0 0-.336-.876 1.468 1.468 0 0 0-.576-.552 1.726 1.726 0 0 0-.864-.204c-.336 0-.624.068-.864.204-.24.128-.436.312-.588.552-.144.24-.252.532-.324.876a5.575 5.575 0 0 0-.108 1.14v1.368c0 .424.036.808.108 1.152.072.336.18.624.324.864.152.24.348.428.588.564.24.128.528.192.864.192Zm0-2.748c-.28 0-.476-.056-.588-.168a.578.578 0 0 1-.156-.408v-.264c0-.16.052-.296.156-.408.112-.112.308-.168.588-.168.28 0 .472.056.576.168a.555.555 0 0 1 .168.408v.264c0 .16-.056.296-.168.408-.104.112-.296.168-.576.168Z" fill="#000"/></svg>