<svg width="45" height="41" viewBox="0 0 45 41" fill="none" xmlns="http://www.w3.org/2000/svg"><path opacity=".1" d="M25.91 6.415c-4.18-.576-8.545-1.192-11.516-.53-5.302 1.18 9.086 3.818 10.758 4.117 3.691.659 8.025 1.116 12.05 2.633 3.835 1.445 1.096 2.906-.23 3.198-8.009 1.764-23.438-2.94-30.04-.015-.988.437-2.152 1.11.498 2.236 5.116 2.175 10.536 3.172 15.604 4.652 3.988 1.165 10.845 3.76 7.3 5.286-2.528 1.088-9.135-.341-13.136-.631-3.42-.248-8.133-.806-10.74-.253-3.953.839 12.85 7.153 14.869 7.934" stroke="#1EA0AC" stroke-width="10.56" stroke-linecap="round"/></svg>