<svg width="144" height="105" viewBox="0 0 144 105" fill="none" xmlns="http://www.w3.org/2000/svg"><g clip-path="url(#a)"><path d="m0 93.775 70.97 11.092V18.02L0 6.928v86.847Z" fill="#1C828F"/><path d="M144 .867H0v92.68h144V.867Z" fill="#1EA0AC"/><path d="M17.285 18.362h4.808l1.946 16.467 2.346-16.467h4.35l2.29 16.467 2.003-16.467h4.693l-4.064 26.93h-4.922L28.503 29.34 26.271 45.29h-4.922l-4.064-26.929ZM41.323 18.362h10.302v4.46h-5.608v6.69h4.922v4.459h-4.98v6.86h5.724v4.46h-10.36V18.363ZM63.873 18.248h4.98l5.094 26.93h-4.694l-.858-5.318h-4.293l-.858 5.317h-4.522l5.151-26.929Zm3.835 17.438-1.43-8.862-1.489 8.862h2.919ZM75.377 18.362h4.865c4.808 0 8.3 2.516 8.3 8.577v.343c0 3.487-1.374 5.717-3.149 7.09L89 45.291h-4.98l-3.033-9.377H80.128v9.377h-4.693v-26.93h-.058ZM80.3 31.627c2.06 0 3.549-1.2 3.549-4.345v-.286c0-3.374-1.603-4.288-3.663-4.288h-.115v8.919h.23ZM90.659 18.362h10.302v4.46h-5.61v6.69h4.98v4.459h-4.98v6.86h5.724v4.46H90.659V18.363ZM21.063 54.782h-3.32v-4.46h11.275v4.46h-3.262v22.413h-4.693V54.782ZM31.021 50.323h10.302v4.46h-5.609v6.689h4.922v4.46h-4.979v6.86h5.724v4.46H31.02v-26.93ZM47.447 50.266h4.98l5.093 26.929h-4.693l-.858-5.317h-4.293l-.858 5.317h-4.465l5.094-26.93Zm3.835 17.38-1.43-8.861-1.489 8.862h2.919ZM58.493 64.216v-.915c0-9.433 3.492-13.15 7.899-13.15 1.316 0 2.06.172 3.09.63v4.859c-.973-.572-1.717-.858-2.632-.858-2.06 0-3.549 1.83-3.549 8.577v.971c0 7.09 1.488 8.577 3.663 8.577.744 0 1.66-.286 2.633-.858v4.631c-1.088.63-2.118.8-3.434.8-4.35-.057-7.67-3.887-7.67-13.264ZM71.886 50.323h4.693v11.149h4.064v-11.15h4.693v26.873h-4.693V65.93h-4.064v11.264h-4.693V50.323ZM88.083 50.323h10.302v4.46h-5.609v6.689h4.98v4.46h-4.98v6.86H98.5v4.46H88.083v-26.93ZM100.789 50.323h4.865c4.808 0 8.299 2.516 8.299 8.576v.343c0 3.488-1.374 5.717-3.148 7.09l3.606 10.92h-4.98l-3.033-9.377H105.54v9.377h-4.694v-26.93h-.057Zm4.922 13.321c2.061 0 3.549-1.2 3.549-4.345v-.286c0-3.373-1.603-4.288-3.663-4.288h-.115v8.92h.229ZM115.498 76.28v-4.86c1.66.972 2.976 1.487 4.235 1.487 1.317 0 2.519-.63 2.519-2.287v-.058c0-1.2-.401-2.172-2.633-4.688-3.205-3.602-4.521-5.317-4.521-8.576v-.057c0-4.288 2.804-7.032 6.524-7.032 1.889 0 2.976.285 4.178.857v4.86c-1.488-.858-2.346-1.2-3.548-1.2-1.317 0-2.404.857-2.404 2.286v.057c0 1.258.401 1.716 2.633 4.288 3.663 4.288 4.521 5.89 4.521 8.977v.057c0 4.23-2.976 7.032-6.639 7.032-1.946 0-3.491-.457-4.865-1.143Z" fill="#fff"/></g><defs><clipPath id="a"><path fill="#fff" transform="translate(0 .867)" d="M0 0h144v104H0z"/></clipPath></defs></svg>