<svg xmlns="http://www.w3.org/2000/svg" fill="currentColor" viewBox="0 0 25 13"><path d="M12.55 1.045c.606 2.05.606 2.05 5.135 4.438-1.998.15-3.412.28-4.829.349-1.523.074-3.046.137-4.57.127-2.062-.011-4.125-.118-6.188-.123-.818 0-2.045-.425-2.097.94C-.042 7.984 1.16 8.05 2 8.078c3.043.115 6.084.168 9.13.138 1.694-.02 3.383-.248 5.37-.41-1.837 2.042-4.685 2.353-6.247 4.886.897-.002 1.517.15 2.026-.03 3.742-1.3 7.288-3.007 10.452-5.43.281-.215.574-.446.791-.725.808-1.038.618-2.198-.598-2.623-3.207-1.121-6.46-2.105-9.701-3.128-.121-.04-.31.129-.672.289Z"/></svg>