<svg width="13" height="15" viewBox="0 0 13 15" fill="none" xmlns="http://www.w3.org/2000/svg"><path d="M2.494.464A2.061 2.061 0 0 0 .433 2.526v10.306c0 1.14.923 2.062 2.061 2.062h9.62a.687.687 0 0 0 .313-1.296l.002-.001s-.659-.268-.659-.93c0-.652.412-.918.412-.918l-.01-.003c.38-.315.63-.785.63-1.318V2.526A2.061 2.061 0 0 0 10.74.464H2.494Zm.687 1.374h7.559c.38 0 .687.308.687.688v7.558c0 .38-.308.687-.687.687H3.18V1.838Zm1.89 1.718a.515.515 0 1 0 0 1.03h4.466a.515.515 0 1 0 0-1.03H5.071Zm0 1.718a.515.515 0 1 0 0 1.03h2.748a.515.515 0 1 0 0-1.03H5.071Zm-2.577 6.871h8.027c-.073.185-.125.41-.125.688 0 .276.09.5.216.687H2.494a.687.687 0 1 1 0-1.375Z" fill="#1C828F"/></svg>