<svg width="23" height="21" viewBox="0 0 23 21" fill="none" xmlns="http://www.w3.org/2000/svg"><path d="M11.55 2.307c2.819 0 3.153.01 4.267.059 2.862.124 4.199 1.426 4.329 4.148.05 1.067.06 1.387.06 4.089 0 2.703-.01 3.023-.06 4.09-.131 2.719-1.465 4.023-4.329 4.147-1.114.05-1.447.06-4.268.06-2.82 0-3.154-.01-4.267-.06-2.868-.125-4.198-1.432-4.328-4.149-.051-1.066-.062-1.386-.062-4.089 0-2.702.011-3.021.062-4.089.13-2.721 1.464-4.023 4.328-4.148 1.114-.048 1.448-.058 4.267-.058Zm0-1.825c-2.869 0-3.228.012-4.354.061C3.361.712 1.23 2.751 1.054 6.43 1.002 7.51.99 7.854.99 10.602c0 2.749.012 3.093.063 4.173.176 3.675 2.304 5.718 6.142 5.886 1.127.05 1.486.061 4.354.061 2.868 0 3.228-.012 4.354-.06 3.832-.17 5.968-2.209 6.142-5.887.052-1.08.064-1.424.064-4.173 0-2.748-.012-3.092-.063-4.172C21.873 2.76 19.743.713 15.904.544 14.777.494 14.417.482 11.55.482Zm0 4.924c-2.995 0-5.423 2.326-5.423 5.196 0 2.87 2.428 5.197 5.422 5.197 2.995 0 5.423-2.326 5.423-5.197 0-2.87-2.428-5.196-5.423-5.196Zm0 8.57c-1.945 0-3.52-1.51-3.52-3.374 0-1.863 1.575-3.373 3.52-3.373 1.943 0 3.52 1.51 3.52 3.373 0 1.864-1.577 3.373-3.52 3.373Zm5.636-9.99c-.7 0-1.268.544-1.268 1.215 0 .67.568 1.214 1.268 1.214.7 0 1.267-.544 1.267-1.214 0-.67-.567-1.215-1.267-1.215Z" fill="#1C828F"/></svg>