<svg width="17" height="21" viewBox="0 0 17 21" fill="none" xmlns="http://www.w3.org/2000/svg"><path d="M16.024 9.553c-.755 3.308-3.058 5.558-6.188 5.558-1.292 0-2.504-.675-2.922-1.445 0 0-.692 2.675-.836 3.196-.527 1.822-2.039 3.653-2.157 3.8-.086.105-.269.072-.292-.067-.03-.23-.417-2.542.037-4.42L5.204 9.85s-.185-.372-.3-.972a4.4 4.4 0 0 1-.079-.868c0-1.724 1.026-3.005 2.301-3.005 1.089 0 1.62.794 1.62 1.739 0 .556-.194 1.26-.43 2.018-.211.675-.456 1.403-.635 2.107-.298 1.234.641 2.235 1.898 2.235 1.75 0 3.063-1.703 3.563-4.03.144-.675.218-1.391.218-2.146 0-2.547-1.764-4.452-4.974-4.452-3.62 0-5.885 2.627-5.885 5.56 0 .411.05.762.145 1.082.13.479.358.877.647 1.207.22.25.253.351.17.64-.057.22-.194.73-.243.935-.074.295-.32.399-.6.295C1.465 11.73.736 10.726.4 9.493A6.51 6.51 0 0 1 .173 7.75C.173 4.447 3.037.484 8.717.484c4.565 0 7.57 3.22 7.57 6.664 0 .844-.096 1.65-.263 2.405Z" fill="#1C828F"/></svg>