<svg width="21" height="21" viewBox="0 0 21 21" fill="none" xmlns="http://www.w3.org/2000/svg"><g clip-path="url(#a)"><path d="M18.133 9.484c-.755 3.307-3.058 5.558-6.188 5.558-1.292 0-2.504-.675-2.922-1.445 0 0-.692 2.675-.836 3.195-.527 1.822-2.039 3.653-2.157 3.801-.086.105-.269.072-.292-.068-.03-.229-.417-2.541.037-4.42l1.538-6.324s-.185-.372-.3-.972a4.4 4.4 0 0 1-.08-.868c0-1.724 1.027-3.005 2.302-3.005 1.089 0 1.62.793 1.62 1.738 0 .556-.194 1.26-.43 2.019-.211.674-.456 1.403-.635 2.107-.298 1.233.641 2.235 1.898 2.235 1.75 0 3.063-1.703 3.562-4.03.145-.675.219-1.391.219-2.146 0-2.548-1.764-4.453-4.974-4.453-3.62 0-5.885 2.628-5.885 5.561 0 .41.05.761.144 1.082.13.479.358.877.648 1.207.22.25.253.35.17.639-.058.22-.194.731-.243.936-.074.294-.32.399-.6.294-1.156-.463-1.886-1.468-2.22-2.701a6.51 6.51 0 0 1-.228-1.742C2.282 4.377 5.146.415 10.826.415c4.565 0 7.569 3.219 7.569 6.664 0 .844-.096 1.65-.262 2.405Z" fill="#1C828F"/></g><defs><clipPath id="a"><path fill="#fff" transform="translate(.258 .415)" d="M0 0h20.24v20.24H0z"/></clipPath></defs></svg>