<svg width="17" height="17" viewBox="0 0 17 17" fill="none" xmlns="http://www.w3.org/2000/svg"><path d="M4.984.555c-.863 0-1.562.7-1.562 1.562V3.29H2.64A2.346 2.346 0 0 0 .297 5.633v6.64a2.346 2.346 0 0 0 2.344 2.344h.78v.781c0 .862.702 1.563 1.563 1.563h7.032c.861 0 1.562-.7 1.562-1.563v-.78h.781a2.346 2.346 0 0 0 2.344-2.345v-6.64a2.346 2.346 0 0 0-2.344-2.344h-.78V2.117c0-.863-.7-1.562-1.563-1.562H4.984Zm.391 1.562h6.25a.39.39 0 0 1 .39.39v.782h-7.03v-.781a.39.39 0 0 1 .39-.39ZM2.641 4.852h11.718c.431 0 .782.35.782.78v6.641c0 .431-.35.782-.782.782h-.78V10.32c0-.861-.702-1.562-1.563-1.562H4.984c-.861 0-1.562.7-1.562 1.562v2.735H2.64a.782.782 0 0 1-.782-.782v-6.64c0-.431.35-.781.782-.781Zm10.156 1.171a.782.782 0 1 0 0 1.564.782.782 0 0 0 0-1.564ZM5.375 10.32h6.25a.39.39 0 0 1 .39.39l.002 4.298a.39.39 0 0 1-.39.39H5.375a.39.39 0 0 1-.39-.39V10.71a.39.39 0 0 1 .39-.39Z" fill="#0D8ED9"/></svg>