<svg width="38" height="38" viewBox="0 0 38 38" fill="none" xmlns="http://www.w3.org/2000/svg"><g clip-path="url(#a)" fill-rule="evenodd" clip-rule="evenodd" fill="#1EA0AC"><path d="M15.198 6.533c1.196.497 2.024 1.447 2.442 2.55a3.5 3.5 0 0 1-4.725 4.424c-.063.036-.13.076-.201.12-.573.351-1.173.801-1.657 1.212a9.163 9.163 0 0 0-.57.522c-1.57 2.56-2.393 4.973-2.393 7.7 0 1.238.06 3.023.35 4.671a4.06 4.06 0 0 1 1.9-.91c1.19-.225 2.198.114 2.83.436 1.237.631 2.173 1.756 2.667 2.94.523 1.254.763 3.163-.426 4.928-1.131 1.68-3 2.379-4.746 2.626-2.422.343-4.505-.45-6.024-1.952-1.367-1.35-2.12-3.107-2.568-4.602-.901-3.01-.983-6.442-.983-8.138 0-4.414 1.418-8.144 3.556-11.568l2.968 1.854-2.968-1.854c.294-.472.683-.875.906-1.1.284-.285.616-.588.969-.887.7-.596 1.591-1.27 2.528-1.844.854-.525 2.084-1.18 3.392-1.401.676-.115 1.691-.17 2.753.273ZM10.111 30.73a.118.118 0 0 1 .023-.01s-.006.004-.023.01Zm.308-15.295ZM34.677 6.533c1.195.497 2.023 1.447 2.44 2.55a3.5 3.5 0 0 1-4.724 4.424c-.063.036-.13.076-.201.12-.573.351-1.173.801-1.657 1.212a9.204 9.204 0 0 0-.57.522c-1.57 2.56-2.393 4.973-2.393 7.7 0 1.238.06 3.023.35 4.671a4.06 4.06 0 0 1 1.9-.91c1.19-.225 2.198.114 2.83.436 1.237.631 2.173 1.756 2.667 2.94.523 1.254.763 3.163-.426 4.928-1.131 1.68-3 2.379-4.746 2.626-2.422.343-4.505-.45-6.024-1.952-1.367-1.35-2.12-3.107-2.568-4.602-.901-3.01-.983-6.442-.983-8.138 0-4.414 1.418-8.144 3.556-11.568l2.968 1.854-2.968-1.854c.294-.472.683-.875.906-1.1.284-.285.616-.588.969-.887.7-.596 1.591-1.27 2.528-1.844.854-.525 2.084-1.18 3.392-1.401.676-.115 1.691-.17 2.754.273ZM29.589 30.73a.114.114 0 0 1 .023-.01s-.006.004-.023.01Zm.308-15.295Z"/></g><defs><clipPath id="a"><path fill="#fff" transform="translate(.594 .679)" d="M0 0h37v37H0z"/></clipPath></defs></svg>