<svg width="21" height="17" viewBox="0 0 21 17" fill="none" xmlns="http://www.w3.org/2000/svg"><path d="M20.95 2.328a8.291 8.291 0 0 1-2.385.654A4.16 4.16 0 0 0 20.39.684a8.317 8.317 0 0 1-2.637 1.008A4.145 4.145 0 0 0 14.723.381c-2.681 0-4.651 2.501-4.046 5.098A11.788 11.788 0 0 1 2.12 1.14a4.158 4.158 0 0 0 1.285 5.544 4.135 4.135 0 0 1-1.88-.52c-.046 1.924 1.333 3.723 3.33 4.124a4.163 4.163 0 0 1-1.875.07 4.155 4.155 0 0 0 3.879 2.884 8.35 8.35 0 0 1-6.148 1.72 11.755 11.755 0 0 0 6.366 1.866c7.71 0 12.065-6.511 11.802-12.351a8.454 8.454 0 0 0 2.072-2.15Z" fill="#1C828F"/></svg>