<svg width="86" height="57" viewBox="0 0 86 57" fill="none" xmlns="http://www.w3.org/2000/svg">
<path d="M77.9536 36.533C60.8859 6.68878 35.3435 -3.97517 0.935291 1.87007C1.17344 6.22967 3.42197 5.41197 5.00984 5.29406C16.8019 4.40514 26.8725 7.74846 37.08 10.7789C51.7201 15.1363 62.2399 26.2739 70.815 40.5819C71.1842 41.192 71.3478 42.0682 71.9431 43.7817C64.1293 43.6273 59.4914 36.9373 51.4724 39.4673C51.1541 40.2588 50.844 41.0331 50.5354 41.8282C54.623 44.0989 58.7432 46.3009 62.7886 48.6366C66.7847 50.9328 70.6151 53.5309 74.6681 55.7069C77.6639 57.3118 80.2749 55.1304 81.6074 49.4676C83.2908 42.2739 84.2579 35.2506 85.4916 28.1677C85.632 27.3685 85.7291 26.3492 85.4526 25.9986C84.7001 24.9761 83.7339 24.2369 82.8616 23.3714C81.8205 25.0419 80.4687 26.6736 79.8136 28.3916C79.023 30.4434 78.817 32.5788 77.9536 36.533Z" fill="#1C828F"/>
</svg>
