<svg xmlns="http://www.w3.org/2000/svg" xmlns:xlink="http://www.w3.org/1999/xlink" version="1.1" id="Layer_1" x="0px" y="0px" viewBox="0 0 336.4 79.3" style="enable-background:new 0 0 336.4 79.3;" xml:space="preserve">
<style type="text/css">
	.st0{fill:#00509A;}
	.st1{fill:#FCCC63;}
	.st2{fill:#02717E;}
	.st3{fill:#1EA0AC;}
	.st4{opacity:0.94;}
	.st5{fill:#FFFFFF;}
	.st6{fill:#045CAC;}
</style>
<g>
	<path class="st0" d="M94.5,18.2v48.1c0,0,144.3-1,238.1-14.7l-34.9-19.1l22.1-25.4C319.8,7.1,209.4,22.4,94.5,18.2z"/>
	<path class="st1" d="M94.5,14.7v48.1c0,0,144.3-1,238.1-14.7l-34.9-19.1l22.1-25.4C319.8,3.6,209.4,19,94.5,14.7z"/>
	<g id="Group_1877_2_" transform="translate(386 20.798)">
		<path id="Path_4527_2_" class="st2" d="M-380.5,47.9l47.9,7.5V-3.3l-47.9-7.5V47.9z"/>
		<rect id="Rectangle_621_2_" x="-380.5" y="-14.9" class="st3" width="97.2" height="62.6"/>
		<g id="Group_1876_2_" transform="translate(11.666 11.744)" class="st4">
			<path id="Path_4528_2_" class="st5" d="M-380.5-14.8h3.2l1.3,11.1l1.6-11.1h2.9l1.5,11.1l1.4-11.1h3.2l-2.7,18.2h-3.3l-1.5-10.8     l-1.5,10.8h-3.3L-380.5-14.8z"/>
			<path id="Path_4529_2_" class="st5" d="M-364.3-14.8h7v3h-3.8v4.5h3.3v3h-3.4v4.6h3.9v3h-7V-14.8z"/>
			<path id="Path_4530_2_" class="st5" d="M-349-14.9h3.4l3.4,18.2h-3.2l-0.6-3.6h-2.9l-0.6,3.6h-3.1L-349-14.9z M-346.5-3.1l-1-6     l-1,6H-346.5z"/>
			<path id="Path_4531_2_" class="st5" d="M-341.3-14.8h3.3c3.2,0,5.6,1.7,5.6,5.8v0.2c0.1,1.8-0.7,3.6-2.1,4.8l2.4,7.4h-3.4l-2-6.3     h-0.6v6.3h-3.2L-341.3-14.8L-341.3-14.8z M-338-5.9c1.4,0,2.4-0.8,2.4-2.9V-9c0-2.3-1.1-2.9-2.5-2.9h-0.1v6L-338-5.9z"/>
			<path id="Path_4532_2_" class="st5" d="M-331-14.8h7v3h-3.8v4.5h3.4v3h-3.4v4.6h3.9v3h-7L-331-14.8z"/>
			<path id="Path_4533_2_" class="st5" d="M-377.9,9.8h-2.2v-3h7.6v3h-2.2v15.1h-3.2L-377.9,9.8z"/>
			<path id="Path_4534_2_" class="st5" d="M-371.2,6.8h7v3h-3.8v4.5h3.3v3h-3.4v4.6h3.9v3h-7L-371.2,6.8z"/>
			<path id="Path_4535_2_" class="st5" d="M-360.1,6.7h3.4l3.4,18.2h-3.2l-0.6-3.6h-2.9l-0.6,3.6h-3L-360.1,6.7z M-357.5,18.5l-1-6     l-1,6H-357.5z"/>
			<path id="Path_4536_2_" class="st5" d="M-352.7,16.1v-0.6c0-6.4,2.4-8.9,5.3-8.9c0.7,0,1.4,0.1,2.1,0.4v3.3     c-0.5-0.4-1.1-0.6-1.8-0.6c-1.4,0-2.4,1.2-2.4,5.8v0.7c0,4.8,1,5.8,2.5,5.8c0.6,0,1.2-0.2,1.8-0.6v3.1c-0.7,0.4-1.5,0.6-2.3,0.5     C-350.4,25.1-352.7,22.5-352.7,16.1z"/>
			<path id="Path_4537_2_" class="st5" d="M-343.6,6.8h3.2v7.5h2.7V6.8h3.2v18.2h-3.2v-7.6h-2.7v7.6h-3.2V6.8z"/>
			<path id="Path_4538_2_" class="st5" d="M-332.7,6.8h7v3h-3.8v4.5h3.4v3h-3.4v4.6h3.9v3h-7L-332.7,6.8z"/>
			<path id="Path_4539_2_" class="st5" d="M-324.1,6.8h3.3c3.2,0,5.6,1.7,5.6,5.8v0.2c0.1,1.8-0.7,3.6-2.1,4.8l2.4,7.4h-3.4l-2-6.3     h-0.6V25h-3.2L-324.1,6.8L-324.1,6.8z M-320.8,15.8c1.4,0,2.4-0.8,2.4-2.9v-0.2c0-2.3-1.1-2.9-2.5-2.9h-0.1v6L-320.8,15.8z"/>
			<path id="Path_4540_2_" class="st5" d="M-314.2,24.3V21c0.8,0.6,1.8,0.9,2.9,1c0.8,0.1,1.6-0.5,1.7-1.3c0-0.1,0-0.2,0-0.3v0     c0-0.8-0.3-1.5-1.8-3.2c-2.2-2.4-3.1-3.6-3.1-5.8v0c0-2.9,1.9-4.8,4.4-4.8c1,0,1.9,0.2,2.8,0.6v3.3c-0.7-0.5-1.5-0.8-2.4-0.8     c-0.8-0.1-1.6,0.6-1.6,1.4c0,0,0,0.1,0,0.1v0c0,0.9,0.3,1.2,1.8,2.9c2.5,2.9,3.1,4,3.1,6.1v0c0.1,2.5-1.7,4.6-4.2,4.7     c-0.1,0-0.2,0-0.3,0C-312.1,25.1-313.2,24.8-314.2,24.3z"/>
		</g>
	</g>
	<path class="st6" d="M124.2,51.7c-4.2-0.1-5.5,0.2-9.8-0.2l0-5.2c1,0.2,1.6,0.2,2,0.2l-0.2-11.5c-0.3,0-0.6,0-2-0.1l0.2-5.2   c3.6,0.2,5.9,0,9.4,0.1l0,4.9l-1.7,0l0.2,11.7c0.2,0,0.5-0.1,2-0.1L124.2,51.7z"/>
	<path class="st6" d="M143.4,51.6l-5.9,0.2c0-3.4,0.3-5.9,0.1-7.8c-0.2-2-0.7-3.2-1.8-3.1c-1.6,0-2.6,0.9-3,1.9   c0.1,1.2,0.6,5.6,0.7,9.4l-5.8,0.3c-0.3-6.3-0.7-8.8-1-15.1l5.6-0.3l0.1,1.1c0.9-0.9,2.3-1.5,4-1.5c5.6-0.1,7.1,4.2,7.2,7.5   C143.7,46.3,143.4,51.6,143.4,51.6z"/>
	<path class="st6" d="M154,52.6c-5.4,0.2-6.4-4.6-6.6-8.4c-0.1-1.9,0.1-3.9,0.3-5.9c-0.7,0-1.3-0.1-3.2-0.1l0.3-4.3   c1.7,0.1,2.7-0.5,3.6-0.5c0.2-1,0.2-1.4,0.5-3.6l5.6-0.7c-0.2,1.5-0.3,3.4-0.4,4.3c1.3,0,2.5-0.1,5-0.2l0.2,4.9   c-2.5,0.1-4.2,0.2-5.8,0.2c-0.1,1.6-0.3,4.3-0.2,6.6c0.1,1.8,0.6,2.9,1.7,2.9c1.5-0.1,1.6-1.6,1.7-3.2l3.6-0.1   C161.1,49.1,157.6,52.4,154,52.6z"/>
	<path class="st6" d="M172.2,49.9c-5.4,0.2-10.4-2.5-10-8.1c0.4-4.3,4.1-7,8.1-7.2c4.2-0.3,7.4,1.6,7.8,6.1c0.1,0.5,0.1,1.1,0,1.6   l-8.7,1.6c0.4,1,1,1.1,2.1,1.2c1.4,0.1,3.8-0.9,4.5-2.2l2.9,3C176.9,48.6,175,49.8,172.2,49.9z M171,38.8c-1.6,0.1-2.2,1.2-2.2,2.1   l4.4-0.8C172.7,39.4,172,38.7,171,38.8z"/>
	<path class="st6" d="M192.1,39.2c-1.9-1.4-3.4-2-4.6-0.7c0.4,2.9,0.8,6.7,1.2,10.6l-5.7,0.5c-0.6-5.6-1.1-10.2-2.2-15.8l5.7-0.9   l0.2,1.1c2.8-0.9,5.4-1.6,8,1.2L192.1,39.2z"/>
	<path class="st6" d="M206.2,49l-0.5-1.5c-1.6,1.1-3.2,1.5-4.7,1.6c-2.3,0.1-4.6-1.6-4.8-4.6c-0.1-2.7,2.6-5.8,8.4-6.7   c-0.1-1.1-0.6-2-1.8-2c-1.2,0-2.4,0.3-4.1,1.8l-2.1-3.2c1.1-1.4,3.5-2.8,6.3-2.9c6.4-0.3,7.6,4.1,7.5,9.6c0,2.3,0.1,4.7,0.9,6.4   L206.2,49z M204.9,41.5c-1.5,0.8-3.2,0.3-3.1,2.3c0,0.6,0.6,1,1.2,1c0.7,0,1.6-0.6,2-1C204.9,43.4,204.9,41.7,204.9,41.5z"/>
	<path class="st6" d="M225.1,39.8c-0.7-1.1-1.8-1.9-3.1-1.9c-1.6,0.1-2.6,1.7-2.4,3.5c0.1,1.7,1.2,2.9,3.1,2.8c1-0.1,2.4-1.7,2.6-3   l5,1.9c-1.5,3.5-4.5,5.7-7.8,5.9c-5.5,0.3-8.3-3.4-8.6-7.3c-0.2-3.9,2.4-8,8-8.4c2.9-0.2,6,0.6,8.4,4.7L225.1,39.8z"/>
	<path class="st6" d="M240.8,48.1c-5.4,0.4-6.6-4.4-6.9-8.2c-0.1-1.9,0-3.9,0.1-5.9c-0.7,0-1.3,0-3.2,0l0.1-4.3   c1.7,0,2.7-0.6,3.6-0.6c0.1-1,0.2-1.5,0.4-3.6l5.6-0.9c-0.2,1.5-0.2,3.4-0.2,4.3c1.3-0.1,2.5-0.2,5-0.3l0.3,4.9   c-2.5,0.2-4.2,0.3-5.7,0.4c0,1.6-0.2,4.3,0,6.6c0.1,1.8,0.7,2.9,1.8,2.8c1.5-0.1,1.6-1.6,1.6-3.3l3.6-0.3   C247.8,44.4,244.3,47.9,240.8,48.1z"/>
	<path class="st6" d="M250,28.1c-1.5-0.7-1.9-2.3-1.3-3.7c1.3-2.8,6.7-2,5.6,1.9C253.8,28.4,251.6,28.9,250,28.1z M256.6,45.5   l-5.7,0.4c-0.9-4.7-1.3-9-1-13.6l5.8-0.3C255.1,36.8,255.8,40.8,256.6,45.5z"/>
	<path class="st6" d="M270.7,44.1l-5.8,0.7c0,0-4.1-9.8-7.5-15.2l6.1-2.1l4.3,9.8l3.1-10.8l4.8,2.2L270.7,44.1z"/>
	<path class="st6" d="M287.8,42.2c-5.4,0.6-10.6-1.8-10.5-7.5c0.1-4.4,3.6-7.2,7.6-7.8c4.1-0.5,7.5,1.1,8.2,5.6   c0.1,0.5,0.1,1,0.1,1.6l-8.6,2.2c0.5,0.9,1.1,1.1,2.2,1.1c1.4,0,3.7-1.2,4.4-2.5l3.1,2.8C292.4,40.6,290.6,41.9,287.8,42.2z    M285.9,31.2c-1.6,0.2-2.1,1.3-2,2.3l4.3-1.1C287.7,31.7,286.9,31.1,285.9,31.2z"/>
</g>
</svg>
