<!-- @TODO replace with actual placeholder svg once designer prepare it -->
<svg width="300" height="250" viewBox="0 0 300 250" fill="none" xmlns="http://www.w3.org/2000/svg">
<rect width="300" height="250" fill="#CCCCCC"/>
<path d="M98.1112 130L101.387 122.488H97.7152V124.048H96.8152V121.624H102.407V122.512L99.1912 130H98.1112ZM109.674 130H104.082V128.968L106.878 126.448C107.286 126.08 107.622 125.704 107.886 125.32C108.15 124.928 108.282 124.516 108.282 124.084V123.94C108.282 123.436 108.15 123.048 107.886 122.776C107.622 122.496 107.23 122.356 106.71 122.356C106.198 122.356 105.802 122.488 105.522 122.752C105.25 123.008 105.046 123.352 104.91 123.784L104.01 123.448C104.09 123.2 104.198 122.96 104.334 122.728C104.478 122.488 104.658 122.276 104.874 122.092C105.09 121.908 105.35 121.76 105.654 121.648C105.966 121.536 106.326 121.48 106.734 121.48C107.15 121.48 107.518 121.54 107.838 121.66C108.166 121.78 108.438 121.948 108.654 122.164C108.878 122.38 109.046 122.636 109.158 122.932C109.278 123.228 109.338 123.552 109.338 123.904C109.338 124.224 109.29 124.524 109.194 124.804C109.106 125.084 108.978 125.352 108.81 125.608C108.65 125.864 108.454 126.116 108.222 126.364C107.998 126.604 107.746 126.844 107.466 127.084L105.126 129.124H109.674V130ZM114.026 130.144C113.538 130.144 113.11 130.084 112.742 129.964C112.374 129.836 112.066 129.664 111.818 129.448C111.578 129.232 111.394 128.976 111.266 128.68C111.146 128.384 111.086 128.064 111.086 127.72C111.086 127.144 111.242 126.688 111.554 126.352C111.866 126.016 112.278 125.78 112.79 125.644V125.548C112.342 125.396 111.986 125.152 111.722 124.816C111.466 124.472 111.338 124.06 111.338 123.58C111.338 122.94 111.574 122.432 112.046 122.056C112.518 121.672 113.178 121.48 114.026 121.48C114.874 121.48 115.534 121.672 116.006 122.056C116.478 122.432 116.714 122.94 116.714 123.58C116.714 124.06 116.582 124.472 116.318 124.816C116.062 125.152 115.71 125.396 115.262 125.548V125.644C115.774 125.78 116.186 126.016 116.498 126.352C116.81 126.688 116.966 127.144 116.966 127.72C116.966 128.064 116.902 128.384 116.774 128.68C116.654 128.976 116.47 129.232 116.222 129.448C115.974 129.664 115.666 129.836 115.298 129.964C114.938 130.084 114.514 130.144 114.026 130.144ZM114.026 129.292C114.618 129.292 115.082 129.16 115.418 128.896C115.754 128.632 115.922 128.26 115.922 127.78V127.516C115.922 127.036 115.754 126.664 115.418 126.4C115.09 126.136 114.626 126.004 114.026 126.004C113.426 126.004 112.958 126.136 112.622 126.4C112.294 126.664 112.13 127.036 112.13 127.516V127.78C112.13 128.26 112.298 128.632 112.634 128.896C112.97 129.16 113.434 129.292 114.026 129.292ZM114.026 125.188C114.57 125.188 114.982 125.072 115.262 124.84C115.55 124.608 115.694 124.276 115.694 123.844V123.676C115.694 123.244 115.546 122.912 115.25 122.68C114.962 122.448 114.554 122.332 114.026 122.332C113.498 122.332 113.086 122.448 112.79 122.68C112.502 122.912 112.358 123.244 112.358 123.676V123.844C112.358 124.276 112.498 124.608 112.778 124.84C113.066 125.072 113.482 125.188 114.026 125.188ZM118.353 130L120.657 126.856L118.413 123.808H119.565L120.501 125.116L121.245 126.148H121.293L122.013 125.116L122.937 123.808H124.041L121.773 126.844L124.101 130H122.949L121.905 128.548L121.197 127.564H121.149L120.465 128.548L119.457 130H118.353ZM131.248 124.696C131.248 125.32 131.152 125.908 130.96 126.46C130.776 127.004 130.536 127.504 130.24 127.96C129.944 128.408 129.616 128.808 129.256 129.16C128.904 129.504 128.556 129.784 128.212 130H126.916C127.372 129.672 127.776 129.352 128.128 129.04C128.488 128.728 128.804 128.404 129.076 128.068C129.348 127.724 129.576 127.36 129.76 126.976C129.944 126.584 130.096 126.144 130.216 125.656L130.156 125.632C129.948 125.976 129.68 126.264 129.352 126.496C129.032 126.72 128.612 126.832 128.092 126.832C127.724 126.832 127.384 126.772 127.072 126.652C126.768 126.532 126.504 126.36 126.28 126.136C126.064 125.912 125.892 125.644 125.764 125.332C125.644 125.012 125.584 124.652 125.584 124.252C125.584 123.844 125.648 123.472 125.776 123.136C125.912 122.792 126.104 122.5 126.352 122.26C126.6 122.012 126.896 121.82 127.24 121.684C127.592 121.548 127.98 121.48 128.404 121.48C128.844 121.48 129.24 121.556 129.592 121.708C129.944 121.852 130.24 122.064 130.48 122.344C130.728 122.616 130.916 122.952 131.044 123.352C131.18 123.752 131.248 124.2 131.248 124.696ZM128.416 126.004C128.992 126.004 129.436 125.848 129.748 125.536C130.068 125.224 130.228 124.784 130.228 124.216V124.12C130.228 123.552 130.068 123.112 129.748 122.8C129.436 122.488 128.992 122.332 128.416 122.332C127.84 122.332 127.392 122.488 127.072 122.8C126.76 123.112 126.604 123.552 126.604 124.12V124.216C126.604 124.784 126.76 125.224 127.072 125.536C127.392 125.848 127.84 126.004 128.416 126.004ZM135.612 130.144C135.1 130.144 134.66 130.048 134.292 129.856C133.924 129.656 133.62 129.372 133.38 129.004C133.14 128.636 132.964 128.184 132.852 127.648C132.74 127.112 132.684 126.5 132.684 125.812C132.684 125.132 132.74 124.524 132.852 123.988C132.964 123.444 133.14 122.988 133.38 122.62C133.62 122.252 133.924 121.972 134.292 121.78C134.66 121.58 135.1 121.48 135.612 121.48C136.124 121.48 136.564 121.58 136.932 121.78C137.3 121.972 137.604 122.252 137.844 122.62C138.084 122.988 138.26 123.444 138.372 123.988C138.484 124.524 138.54 125.132 138.54 125.812C138.54 126.5 138.484 127.112 138.372 127.648C138.26 128.184 138.084 128.636 137.844 129.004C137.604 129.372 137.3 129.656 136.932 129.856C136.564 130.048 136.124 130.144 135.612 130.144ZM135.612 129.268C135.948 129.268 136.236 129.204 136.476 129.076C136.716 128.94 136.908 128.752 137.052 128.512C137.204 128.272 137.316 127.984 137.388 127.648C137.46 127.304 137.496 126.92 137.496 126.496V125.128C137.496 124.712 137.46 124.332 137.388 123.988C137.316 123.644 137.204 123.352 137.052 123.112C136.908 122.872 136.716 122.688 136.476 122.56C136.236 122.424 135.948 122.356 135.612 122.356C135.276 122.356 134.988 122.424 134.748 122.56C134.508 122.688 134.312 122.872 134.16 123.112C134.016 123.352 133.908 123.644 133.836 123.988C133.764 124.332 133.728 124.712 133.728 125.128V126.496C133.728 126.92 133.764 127.304 133.836 127.648C133.908 127.984 134.016 128.272 134.16 128.512C134.312 128.752 134.508 128.94 134.748 129.076C134.988 129.204 135.276 129.268 135.612 129.268ZM135.612 126.52C135.332 126.52 135.136 126.464 135.024 126.352C134.92 126.24 134.868 126.104 134.868 125.944V125.68C134.868 125.52 134.92 125.384 135.024 125.272C135.136 125.16 135.332 125.104 135.612 125.104C135.892 125.104 136.084 125.16 136.188 125.272C136.3 125.384 136.356 125.52 136.356 125.68V125.944C136.356 126.104 136.3 126.24 136.188 126.352C136.084 126.464 135.892 126.52 135.612 126.52ZM142.291 128.368H143.839L142.459 131.692H141.655L142.291 128.368ZM156.838 125.176C157.422 125.176 157.858 125.048 158.146 124.792C158.442 124.528 158.59 124.192 158.59 123.784V123.7C158.59 123.252 158.446 122.916 158.158 122.692C157.878 122.468 157.51 122.356 157.054 122.356C156.606 122.356 156.242 122.456 155.962 122.656C155.69 122.848 155.466 123.104 155.29 123.424L154.534 122.848C154.638 122.68 154.766 122.516 154.918 122.356C155.07 122.188 155.246 122.04 155.446 121.912C155.654 121.784 155.89 121.68 156.154 121.6C156.426 121.52 156.734 121.48 157.078 121.48C157.438 121.48 157.774 121.528 158.086 121.624C158.398 121.712 158.67 121.848 158.902 122.032C159.134 122.208 159.314 122.428 159.442 122.692C159.578 122.956 159.646 123.256 159.646 123.592C159.646 123.864 159.602 124.108 159.514 124.324C159.434 124.54 159.318 124.728 159.166 124.888C159.022 125.048 158.85 125.184 158.65 125.296C158.45 125.408 158.238 125.492 158.014 125.548V125.596C158.246 125.644 158.47 125.724 158.686 125.836C158.902 125.94 159.094 126.08 159.262 126.256C159.43 126.424 159.562 126.632 159.658 126.88C159.762 127.12 159.814 127.396 159.814 127.708C159.814 128.068 159.742 128.4 159.598 128.704C159.462 129 159.266 129.256 159.01 129.472C158.762 129.68 158.458 129.844 158.098 129.964C157.746 130.084 157.354 130.144 156.922 130.144C156.554 130.144 156.226 130.104 155.938 130.024C155.658 129.944 155.406 129.836 155.182 129.7C154.966 129.564 154.774 129.412 154.606 129.244C154.446 129.076 154.302 128.9 154.174 128.716L154.93 128.14C155.042 128.308 155.158 128.46 155.278 128.596C155.398 128.732 155.534 128.852 155.686 128.956C155.846 129.052 156.026 129.128 156.226 129.184C156.426 129.24 156.658 129.268 156.922 129.268C157.514 129.268 157.966 129.132 158.278 128.86C158.598 128.588 158.758 128.2 158.758 127.696V127.6C158.758 127.104 158.602 126.72 158.29 126.448C157.986 126.176 157.526 126.04 156.91 126.04H155.914V125.176H156.838ZM164.393 130.144C163.881 130.144 163.441 130.048 163.073 129.856C162.705 129.656 162.401 129.372 162.161 129.004C161.921 128.636 161.745 128.184 161.633 127.648C161.521 127.112 161.465 126.5 161.465 125.812C161.465 125.132 161.521 124.524 161.633 123.988C161.745 123.444 161.921 122.988 162.161 122.62C162.401 122.252 162.705 121.972 163.073 121.78C163.441 121.58 163.881 121.48 164.393 121.48C164.905 121.48 165.345 121.58 165.713 121.78C166.081 121.972 166.385 122.252 166.625 122.62C166.865 122.988 167.041 123.444 167.153 123.988C167.265 124.524 167.321 125.132 167.321 125.812C167.321 126.5 167.265 127.112 167.153 127.648C167.041 128.184 166.865 128.636 166.625 129.004C166.385 129.372 166.081 129.656 165.713 129.856C165.345 130.048 164.905 130.144 164.393 130.144ZM164.393 129.268C164.729 129.268 165.017 129.204 165.257 129.076C165.497 128.94 165.689 128.752 165.833 128.512C165.985 128.272 166.097 127.984 166.169 127.648C166.241 127.304 166.277 126.92 166.277 126.496V125.128C166.277 124.712 166.241 124.332 166.169 123.988C166.097 123.644 165.985 123.352 165.833 123.112C165.689 122.872 165.497 122.688 165.257 122.56C165.017 122.424 164.729 122.356 164.393 122.356C164.057 122.356 163.769 122.424 163.529 122.56C163.289 122.688 163.093 122.872 162.941 123.112C162.797 123.352 162.689 123.644 162.617 123.988C162.545 124.332 162.509 124.712 162.509 125.128V126.496C162.509 126.92 162.545 127.304 162.617 127.648C162.689 127.984 162.797 128.272 162.941 128.512C163.093 128.752 163.289 128.94 163.529 129.076C163.769 129.204 164.057 129.268 164.393 129.268ZM164.393 126.52C164.113 126.52 163.917 126.464 163.805 126.352C163.701 126.24 163.649 126.104 163.649 125.944V125.68C163.649 125.52 163.701 125.384 163.805 125.272C163.917 125.16 164.113 125.104 164.393 125.104C164.673 125.104 164.865 125.16 164.969 125.272C165.081 125.384 165.137 125.52 165.137 125.68V125.944C165.137 126.104 165.081 126.24 164.969 126.352C164.865 126.464 164.673 126.52 164.393 126.52ZM171.588 130.144C171.076 130.144 170.636 130.048 170.268 129.856C169.9 129.656 169.596 129.372 169.356 129.004C169.116 128.636 168.94 128.184 168.828 127.648C168.716 127.112 168.66 126.5 168.66 125.812C168.66 125.132 168.716 124.524 168.828 123.988C168.94 123.444 169.116 122.988 169.356 122.62C169.596 122.252 169.9 121.972 170.268 121.78C170.636 121.58 171.076 121.48 171.588 121.48C172.1 121.48 172.54 121.58 172.908 121.78C173.276 121.972 173.58 122.252 173.82 122.62C174.06 122.988 174.236 123.444 174.348 123.988C174.46 124.524 174.516 125.132 174.516 125.812C174.516 126.5 174.46 127.112 174.348 127.648C174.236 128.184 174.06 128.636 173.82 129.004C173.58 129.372 173.276 129.656 172.908 129.856C172.54 130.048 172.1 130.144 171.588 130.144ZM171.588 129.268C171.924 129.268 172.212 129.204 172.452 129.076C172.692 128.94 172.884 128.752 173.028 128.512C173.18 128.272 173.292 127.984 173.364 127.648C173.436 127.304 173.472 126.92 173.472 126.496V125.128C173.472 124.712 173.436 124.332 173.364 123.988C173.292 123.644 173.18 123.352 173.028 123.112C172.884 122.872 172.692 122.688 172.452 122.56C172.212 122.424 171.924 122.356 171.588 122.356C171.252 122.356 170.964 122.424 170.724 122.56C170.484 122.688 170.288 122.872 170.136 123.112C169.992 123.352 169.884 123.644 169.812 123.988C169.74 124.332 169.704 124.712 169.704 125.128V126.496C169.704 126.92 169.74 127.304 169.812 127.648C169.884 127.984 169.992 128.272 170.136 128.512C170.288 128.752 170.484 128.94 170.724 129.076C170.964 129.204 171.252 129.268 171.588 129.268ZM171.588 126.52C171.308 126.52 171.112 126.464 171 126.352C170.896 126.24 170.844 126.104 170.844 125.944V125.68C170.844 125.52 170.896 125.384 171 125.272C171.112 125.16 171.308 125.104 171.588 125.104C171.868 125.104 172.06 125.16 172.164 125.272C172.276 125.384 172.332 125.52 172.332 125.68V125.944C172.332 126.104 172.276 126.24 172.164 126.352C172.06 126.464 171.868 126.52 171.588 126.52ZM175.916 130L178.22 126.856L175.976 123.808H177.128L178.064 125.116L178.808 126.148H178.856L179.576 125.116L180.5 123.808H181.604L179.336 126.844L181.664 130H180.512L179.468 128.548L178.76 127.564H178.712L178.028 128.548L177.02 130H175.916ZM188.823 130H183.231V128.968L186.027 126.448C186.435 126.08 186.771 125.704 187.035 125.32C187.299 124.928 187.431 124.516 187.431 124.084V123.94C187.431 123.436 187.299 123.048 187.035 122.776C186.771 122.496 186.379 122.356 185.859 122.356C185.347 122.356 184.951 122.488 184.671 122.752C184.399 123.008 184.195 123.352 184.059 123.784L183.159 123.448C183.239 123.2 183.347 122.96 183.483 122.728C183.627 122.488 183.807 122.276 184.023 122.092C184.239 121.908 184.499 121.76 184.803 121.648C185.115 121.536 185.475 121.48 185.883 121.48C186.299 121.48 186.667 121.54 186.987 121.66C187.315 121.78 187.587 121.948 187.803 122.164C188.027 122.38 188.195 122.636 188.307 122.932C188.427 123.228 188.487 123.552 188.487 123.904C188.487 124.224 188.439 124.524 188.343 124.804C188.255 125.084 188.127 125.352 187.959 125.608C187.799 125.864 187.603 126.116 187.371 126.364C187.147 126.604 186.895 126.844 186.615 127.084L184.275 129.124H188.823V130ZM195.586 122.5H191.842L191.602 125.704H191.686C191.894 125.424 192.126 125.204 192.382 125.044C192.638 124.876 192.99 124.792 193.438 124.792C193.806 124.792 194.142 124.852 194.446 124.972C194.758 125.084 195.026 125.252 195.25 125.476C195.474 125.7 195.65 125.972 195.778 126.292C195.906 126.604 195.97 126.964 195.97 127.372C195.97 127.78 195.906 128.156 195.778 128.5C195.65 128.836 195.462 129.128 195.214 129.376C194.966 129.616 194.666 129.804 194.314 129.94C193.962 130.076 193.562 130.144 193.114 130.144C192.762 130.144 192.446 130.104 192.166 130.024C191.894 129.944 191.65 129.836 191.434 129.7C191.226 129.564 191.042 129.412 190.882 129.244C190.722 129.076 190.578 128.9 190.45 128.716L191.206 128.14C191.318 128.308 191.43 128.46 191.542 128.596C191.662 128.732 191.798 128.852 191.95 128.956C192.102 129.052 192.274 129.128 192.466 129.184C192.658 129.24 192.882 129.268 193.138 129.268C193.714 129.268 194.154 129.112 194.458 128.8C194.77 128.488 194.926 128.056 194.926 127.504V127.408C194.926 126.856 194.77 126.424 194.458 126.112C194.146 125.8 193.698 125.644 193.114 125.644C192.714 125.644 192.402 125.712 192.178 125.848C191.962 125.984 191.762 126.152 191.578 126.352L190.726 126.232L191.026 121.624H195.586V122.5ZM200.37 130.144C199.858 130.144 199.418 130.048 199.05 129.856C198.682 129.656 198.378 129.372 198.138 129.004C197.898 128.636 197.722 128.184 197.61 127.648C197.498 127.112 197.442 126.5 197.442 125.812C197.442 125.132 197.498 124.524 197.61 123.988C197.722 123.444 197.898 122.988 198.138 122.62C198.378 122.252 198.682 121.972 199.05 121.78C199.418 121.58 199.858 121.48 200.37 121.48C200.882 121.48 201.322 121.58 201.69 121.78C202.058 121.972 202.362 122.252 202.602 122.62C202.842 122.988 203.018 123.444 203.13 123.988C203.242 124.524 203.298 125.132 203.298 125.812C203.298 126.5 203.242 127.112 203.13 127.648C203.018 128.184 202.842 128.636 202.602 129.004C202.362 129.372 202.058 129.656 201.69 129.856C201.322 130.048 200.882 130.144 200.37 130.144ZM200.37 129.268C200.706 129.268 200.994 129.204 201.234 129.076C201.474 128.94 201.666 128.752 201.81 128.512C201.962 128.272 202.074 127.984 202.146 127.648C202.218 127.304 202.254 126.92 202.254 126.496V125.128C202.254 124.712 202.218 124.332 202.146 123.988C202.074 123.644 201.962 123.352 201.81 123.112C201.666 122.872 201.474 122.688 201.234 122.56C200.994 122.424 200.706 122.356 200.37 122.356C200.034 122.356 199.746 122.424 199.506 122.56C199.266 122.688 199.07 122.872 198.918 123.112C198.774 123.352 198.666 123.644 198.594 123.988C198.522 124.332 198.486 124.712 198.486 125.128V126.496C198.486 126.92 198.522 127.304 198.594 127.648C198.666 127.984 198.774 128.272 198.918 128.512C199.07 128.752 199.266 128.94 199.506 129.076C199.746 129.204 200.034 129.268 200.37 129.268ZM200.37 126.52C200.09 126.52 199.894 126.464 199.782 126.352C199.678 126.24 199.626 126.104 199.626 125.944V125.68C199.626 125.52 199.678 125.384 199.782 125.272C199.894 125.16 200.09 125.104 200.37 125.104C200.65 125.104 200.842 125.16 200.946 125.272C201.058 125.384 201.114 125.52 201.114 125.68V125.944C201.114 126.104 201.058 126.24 200.946 126.352C200.842 126.464 200.65 126.52 200.37 126.52Z" fill="black"/>
</svg>
