<svg width="45" height="41" viewBox="0 0 45 41" fill="none" xmlns="http://www.w3.org/2000/svg">
<path opacity="0.1" d="M25.9102 6.41451C21.7302 5.83903 17.3652 5.22286 14.3937 5.8843C9.09164 7.06454 23.4799 9.70337 25.1523 10.002C28.8434 10.661 33.177 11.118 37.2027 12.6351C41.0369 14.0799 38.298 15.5414 36.9726 15.8333C28.9632 17.597 13.5344 12.8926 6.93194 15.8175C5.94387 16.2552 4.7804 16.9278 7.43018 18.0543C12.5462 20.2291 17.9656 21.2257 23.0335 22.7062C27.0217 23.8712 33.8794 26.4659 30.3334 27.9921C27.806 29.0799 21.1994 27.6509 17.1977 27.3609C13.7781 27.113 9.06489 26.5553 6.45813 27.1083C2.5051 27.947 19.3076 34.261 21.327 35.0421" stroke="#1EA0AC" stroke-width="10.5598" stroke-linecap="round"/>
</svg>
