<svg width="144" height="105" viewBox="0 0 144 105" fill="none" xmlns="http://www.w3.org/2000/svg">
<g clip-path="url(#clip0_865_2996)">
<path d="M0 93.7755L70.9698 104.867V18.0195L0 6.92773V93.7755Z" fill="#1C828F"/>
<path d="M144 0.867188H0V93.5467H144V0.867188Z" fill="#1EA0AC"/>
<path d="M17.2852 18.3624H22.0928L24.0387 34.8286L26.3853 18.3624H30.7351L33.0244 34.8286L35.0276 18.3624H39.7208L35.6572 45.2915H30.7351L28.503 29.3399L26.2708 45.2915H21.3487L17.2852 18.3624Z" fill="white"/>
<path d="M41.3233 18.3624H51.6254V22.822H46.0165V29.5114H50.9386V33.971H45.9592V40.8319H51.6826V45.2915H41.3233V18.3624Z" fill="white"/>
<path d="M63.8734 18.248H68.8527L73.9465 45.1771H69.2534L68.3949 39.8599H64.1023L63.2438 45.1771H58.7224L63.8734 18.248ZM67.708 35.6862L66.2772 26.8242L64.7891 35.6862H67.708Z" fill="white"/>
<path d="M75.3774 18.3624H80.2422C85.0499 18.3624 88.5411 20.8781 88.5411 26.9385V27.2816C88.5411 30.7692 87.1675 32.999 85.3933 34.3712L88.999 45.2915H84.0197L80.9863 35.9149C80.929 35.9149 80.929 35.9149 80.929 35.9149H80.1278V45.2915H75.4346V18.3624H75.3774ZM80.2995 31.6268C82.3599 31.6268 83.848 30.4262 83.848 27.2816V26.9957C83.848 23.6224 82.2454 22.7076 80.185 22.7076H80.0705V31.6268H80.2995Z" fill="white"/>
<path d="M90.6588 18.3624H100.961V22.822H95.3519V29.5114H100.331V33.971H95.3519V40.8319H101.075V45.2915H90.6588V18.3624Z" fill="white"/>
<path d="M21.0626 54.7824H17.743V50.3228H29.0181V54.7824H25.7557V77.1947H21.0626V54.7824Z" fill="white"/>
<path d="M31.0212 50.3228H41.3233V54.7824H35.7144V61.4718H40.6365V65.9314H35.6572V72.7923H41.3805V77.2519H31.0212V50.3228Z" fill="white"/>
<path d="M47.4473 50.2656H52.4266L57.5205 77.1947H52.8273L51.9688 71.8775H47.6763L46.8178 77.1947H42.3535L47.4473 50.2656ZM51.282 67.6466L49.8511 58.7846L48.3631 67.6466H51.282Z" fill="white"/>
<path d="M58.4934 64.2162V63.3014C58.4934 53.8676 61.9847 50.1513 66.3917 50.1513C67.708 50.1513 68.4521 50.3228 69.4823 50.7802V55.64C68.5093 55.0683 67.7653 54.7824 66.8495 54.7824C64.7891 54.7824 63.3011 56.612 63.3011 63.3585V64.3305C63.3011 71.4201 64.7891 72.9066 66.964 72.9066C67.708 72.9066 68.6238 72.6208 69.5968 72.049V76.6801C68.5093 77.3091 67.4791 77.4806 66.1627 77.4806C61.813 77.4234 58.4934 73.5927 58.4934 64.2162Z" fill="white"/>
<path d="M71.8861 50.3228H76.5793V61.4718H80.6429V50.3228H85.336V77.1947H80.6429V65.9314H76.5793V77.1947H71.8861V50.3228Z" fill="white"/>
<path d="M88.0832 50.3228H98.3853V54.7824H92.7764V61.4718H97.7557V65.9314H92.7764V72.7923H98.4998V77.2519H88.0832V50.3228Z" fill="white"/>
<path d="M100.789 50.3228H105.654C110.462 50.3228 113.953 52.8385 113.953 58.899V59.242C113.953 62.7296 112.579 64.9594 110.805 66.3316L114.411 77.2519H109.431L106.398 67.8753C106.341 67.8753 106.341 67.8753 106.341 67.8753H105.54V77.2519H100.846V50.3228H100.789ZM105.711 63.6444C107.772 63.6444 109.26 62.4438 109.26 59.2992V59.0133C109.26 55.64 107.657 54.7252 105.597 54.7252H105.482V63.6444H105.711Z" fill="white"/>
<path d="M115.498 76.2799V71.4201C117.158 72.3921 118.474 72.9066 119.733 72.9066C121.05 72.9066 122.252 72.2777 122.252 70.6197V70.5625C122.252 69.3618 121.851 68.3899 119.619 65.8742C116.414 62.2722 115.098 60.557 115.098 57.2981V57.2409C115.098 52.9528 117.902 50.2085 121.622 50.2085C123.511 50.2085 124.598 50.4943 125.8 51.0661V55.9259C124.312 55.0683 123.454 54.7252 122.252 54.7252C120.935 54.7252 119.848 55.5828 119.848 57.0122V57.0694C119.848 58.3272 120.249 58.7846 122.481 61.3574C126.144 65.6455 127.002 67.2464 127.002 70.3338V70.391C127.002 74.6219 124.026 77.4234 120.363 77.4234C118.417 77.4234 116.872 76.966 115.498 76.2799Z" fill="white"/>
</g>
<defs>
<clipPath id="clip0_865_2996">
<rect width="144" height="104" fill="white" transform="translate(0 0.867188)"/>
</clipPath>
</defs>
</svg>
