<svg width="13" height="15" viewBox="0 0 13 15" fill="none" xmlns="http://www.w3.org/2000/svg">
<path d="M2.49414 0.464111C1.35556 0.464111 0.432739 1.38693 0.432739 2.52551V12.8325C0.432739 13.9711 1.35556 14.8939 2.49414 14.8939H12.114C12.4937 14.8939 12.8011 14.5864 12.8011 14.2068C12.8011 13.9406 12.6486 13.7123 12.4274 13.5982L12.4294 13.5968C12.4294 13.5968 11.7704 13.3292 11.7704 12.6661C11.7704 12.0154 12.1825 11.7488 12.1825 11.7488L12.1717 11.7461C12.5529 11.431 12.8011 10.9606 12.8011 10.4276V2.52551C12.8011 1.38693 11.8783 0.464111 10.7397 0.464111H2.49414ZM3.18127 1.83838H10.7397C11.1194 1.83838 11.4269 2.14587 11.4269 2.52551V10.084C11.4269 10.4636 11.1194 10.7711 10.7397 10.7711H3.18127V1.83838ZM5.07089 3.55621C4.78642 3.55621 4.55554 3.78675 4.55554 4.07156C4.55554 4.35638 4.78642 4.58691 5.07089 4.58691H9.53726C9.82173 4.58691 10.0526 4.35638 10.0526 4.07156C10.0526 3.78675 9.82173 3.55621 9.53726 3.55621H5.07089ZM5.07089 5.27405C4.78642 5.27405 4.55554 5.50458 4.55554 5.7894C4.55554 6.07421 4.78642 6.30475 5.07089 6.30475H7.81943C8.1039 6.30475 8.33478 6.07421 8.33478 5.7894C8.33478 5.50458 8.1039 5.27405 7.81943 5.27405H5.07089ZM2.49414 12.1454H10.521C10.448 12.3302 10.3962 12.5545 10.3962 12.8325C10.3962 13.1093 10.4862 13.3337 10.6116 13.5197H2.49414C2.1145 13.5197 1.80701 13.2122 1.80701 12.8325C1.80701 12.4529 2.1145 12.1454 2.49414 12.1454Z" fill="#1C828F"/>
</svg>
