<svg width="18" height="14" viewBox="0 0 18 14" fill="none" xmlns="http://www.w3.org/2000/svg">
<path d="M15.5156 0.680664C16.3789 0.680664 17.1094 1.42546 17.1094 2.30566C17.1094 2.84733 16.8438 3.32129 16.4453 3.62598L9.24023 9.14421C8.8418 9.44889 8.34375 9.44889 7.94531 9.14421L0.740234 3.62598C0.341797 3.32129 0.109375 2.84733 0.109375 2.30566C0.109375 1.42546 0.806641 0.680664 1.70312 0.680664H15.5156ZM7.31445 10.0244C8.07812 10.5999 9.10742 10.5999 9.87109 10.0244L17.1094 4.47233V11.514C17.1094 12.7327 16.1465 13.6807 14.9844 13.6807H2.23438C1.03906 13.6807 0.109375 12.7327 0.109375 11.514V4.47233L7.31445 10.0244Z" fill="#1C828F"/>
</svg>
