<svg width="23" height="21" viewBox="0 0 23 21" fill="none" xmlns="http://www.w3.org/2000/svg">
<path d="M11.5493 2.30651C14.3687 2.30651 14.7031 2.31663 15.8172 2.36554C18.6789 2.49035 20.0156 3.79159 20.1458 6.51381C20.1968 7.5806 20.2065 7.90106 20.2065 10.603C20.2065 13.3059 20.196 13.6255 20.1458 14.6923C20.0147 17.412 18.6815 18.7157 15.8172 18.8405C14.7031 18.8895 14.3705 18.8996 11.5493 18.8996C8.72981 18.8996 8.39542 18.8895 7.28224 18.8405C4.41351 18.7149 3.08386 17.4078 2.95362 14.6914C2.90258 13.6246 2.89202 13.305 2.89202 10.6022C2.89202 7.90022 2.90346 7.5806 2.95362 6.51297C3.08474 3.79159 4.41791 2.48951 7.28224 2.3647C8.3963 2.31663 8.72981 2.30651 11.5493 2.30651ZM11.5493 0.482422C8.68141 0.482422 8.32238 0.494228 7.19601 0.543141C3.36105 0.711804 1.22974 2.75094 1.05374 6.42948C1.00182 7.50976 0.989502 7.85384 0.989502 10.6022C0.989502 13.3506 1.00182 13.6955 1.05286 14.7749C1.22886 18.4501 3.35665 20.4926 7.19513 20.6613C8.32238 20.7102 8.68141 20.722 11.5493 20.722C14.4171 20.722 14.777 20.7102 15.9034 20.6613C19.7348 20.4926 21.8714 18.4535 22.0448 14.7749C22.0967 13.6955 22.109 13.3506 22.109 10.6022C22.109 7.85384 22.0967 7.50976 22.0457 6.43032C21.8732 2.75853 19.7428 0.712647 15.9043 0.543984C14.777 0.494228 14.4171 0.482422 11.5493 0.482422V0.482422ZM11.5493 5.40569C8.5547 5.40569 6.12683 7.7324 6.12683 10.6022C6.12683 13.472 8.5547 15.7995 11.5493 15.7995C14.5438 15.7995 16.9717 13.4728 16.9717 10.6022C16.9717 7.7324 14.5438 5.40569 11.5493 5.40569ZM11.5493 13.9755C9.60539 13.9755 8.02935 12.4659 8.02935 10.6022C8.02935 8.73932 9.60539 7.22894 11.5493 7.22894C13.4931 7.22894 15.0692 8.73932 15.0692 10.6022C15.0692 12.4659 13.4931 13.9755 11.5493 13.9755ZM17.1864 3.9864C16.486 3.9864 15.9184 4.53033 15.9184 5.20077C15.9184 5.8712 16.486 6.41514 17.1864 6.41514C17.886 6.41514 18.4527 5.8712 18.4527 5.20077C18.4527 4.53033 17.886 3.9864 17.1864 3.9864Z" fill="#1C828F"/>
</svg>
