<svg width="18" height="18" viewBox="0 0 18 18" fill="none" xmlns="http://www.w3.org/2000/svg">
<path fill-rule="evenodd" clip-rule="evenodd" d="M0.44263 6.4026H3.81784V17.6807H0.44263V6.4026ZM2.10957 0.680664C3.23464 0.680664 4.15109 1.59265 4.15109 2.71223C4.15109 3.83181 3.23464 4.74379 2.10957 4.74379C0.984503 4.74379 0.109375 3.83181 0.109375 2.71223C0.109375 1.59265 0.984503 0.680664 2.10957 0.680664ZM5.81803 6.4026H9.15125V7.97851C9.85975 6.94183 11.0261 6.27857 12.3598 6.27857H13.2763C15.4011 6.27857 17.1094 8.02029 17.1094 10.093V17.6807H13.7762V16.644V11.5853C13.7342 10.2999 12.8597 9.30503 11.568 9.30503C10.2763 9.30503 9.19324 10.2999 9.15125 11.5853V17.6807H5.81803V6.4026Z" fill="#1C828F"/>
</svg>
