<svg width="17" height="21" viewBox="0 0 17 21" fill="none" xmlns="http://www.w3.org/2000/svg">
<path d="M16.0236 9.55289C15.2692 12.8609 12.9665 15.1109 9.83624 15.1109C8.54433 15.1109 7.3322 14.4363 6.91443 13.6665C6.91443 13.6665 6.22215 16.3415 6.07804 16.8616C5.55075 18.6835 4.03923 20.5146 3.92085 20.6628C3.83506 20.7669 3.65234 20.7341 3.62947 20.5945C3.59859 20.3655 3.2117 18.0534 3.66636 16.1749C3.89626 15.2327 5.20447 9.84999 5.20447 9.84999C5.20447 9.84999 5.01889 9.47848 4.90422 8.87797C4.85332 8.63145 4.82501 8.33119 4.82501 8.00996C4.82501 6.28602 5.85128 5.00513 7.12632 5.00513C8.21492 5.00513 8.74593 5.79872 8.74593 6.74373C8.74593 7.2997 8.55234 8.00393 8.31558 8.76189C8.10483 9.43653 7.86006 10.1649 7.68106 10.8691C7.3831 12.1026 8.32215 13.1042 9.57946 13.1042C11.3292 13.1042 12.6417 11.401 13.1415 9.07393C13.2856 8.39929 13.3597 7.68299 13.3597 6.9279C13.3597 4.38078 11.596 2.47553 8.38563 2.47553C4.76582 2.47553 2.50141 5.10311 2.50141 8.03669C2.50141 8.44698 2.55116 8.79752 2.64552 9.11846C2.77563 9.59685 3.00353 9.99509 3.29319 10.3252C3.5128 10.5749 3.54597 10.676 3.4639 10.9642C3.40557 11.1843 3.26946 11.6955 3.21999 11.9003C3.14593 12.1946 2.89973 12.2988 2.62093 12.1946C1.4637 11.7308 0.734536 10.7263 0.400835 9.49284C0.250141 8.95181 0.172363 8.36337 0.172363 7.75109C0.173221 4.44657 3.0367 0.484375 8.71733 0.484375C13.2822 0.484375 16.2861 3.70327 16.2861 7.14828C16.2861 7.99244 16.1906 8.79781 16.0236 9.55289Z" fill="#1C828F"/>
</svg>
