<svg width="21" height="21" viewBox="0 0 21 21" fill="none" xmlns="http://www.w3.org/2000/svg">
<g clip-path="url(#clip0_598_38336)">
<path d="M18.1325 9.48356C17.3781 12.7915 15.0754 15.0416 11.9451 15.0416C10.6532 15.0416 9.44109 14.3669 9.02332 13.5972C9.02332 13.5972 8.33104 16.2722 8.18692 16.7922C7.65964 18.6141 6.14812 20.4453 6.02974 20.5935C5.94395 20.6975 5.76123 20.6648 5.73835 20.5251C5.70747 20.2961 5.32059 17.984 5.77524 16.1055C6.00514 15.1634 7.31335 9.78065 7.31335 9.78065C7.31335 9.78065 7.12777 9.40914 7.01311 8.80863C6.96221 8.56211 6.9339 8.26186 6.9339 7.94063C6.9339 6.21668 7.96017 4.93579 9.23521 4.93579C10.3238 4.93579 10.8548 5.72938 10.8548 6.67439C10.8548 7.23036 10.6612 7.93459 10.4245 8.69256C10.2137 9.36719 9.96895 10.0956 9.78994 10.7998C9.49199 12.0333 10.431 13.0349 11.6884 13.0349C13.4381 13.0349 14.7506 11.3316 15.2504 9.00459C15.3945 8.32995 15.4686 7.61365 15.4686 6.85857C15.4686 4.31144 13.7049 2.40619 10.4945 2.40619C6.87471 2.40619 4.61029 5.03377 4.61029 7.96735C4.61029 8.37765 4.66005 8.72818 4.75441 9.04912C4.88452 9.52752 5.11242 9.92575 5.40208 10.2559C5.62169 10.5056 5.65486 10.6067 5.57279 10.8949C5.51446 11.115 5.37835 11.6261 5.32888 11.831C5.25482 12.1252 5.00862 12.2295 4.72982 12.1252C3.57259 11.6615 2.84342 10.657 2.50972 9.42351C2.35903 8.88248 2.28125 8.29404 2.28125 7.68175C2.28211 4.37724 5.14559 0.415039 10.8262 0.415039C15.3911 0.415039 18.395 3.63393 18.395 7.07894C18.395 7.9231 18.2995 8.72847 18.1325 9.48356Z" fill="#1C828F"/>
</g>
<defs>
<clipPath id="clip0_598_38336">
<rect width="20.2396" height="20.2396" fill="white" transform="translate(0.257812 0.415039)"/>
</clipPath>
</defs>
</svg>
