<svg width="17" height="17" viewBox="0 0 17 17" fill="none" xmlns="http://www.w3.org/2000/svg">
<path d="M4.98438 0.554688C4.12148 0.554688 3.42188 1.2543 3.42188 2.11719V3.28906H2.64062C1.34805 3.28906 0.296875 4.34023 0.296875 5.63281V12.2734C0.296875 13.566 1.34805 14.6172 2.64062 14.6172H3.42188V15.3984C3.42188 16.2602 4.12266 16.9609 4.98438 16.9609H12.0156C12.8773 16.9609 13.5781 16.2602 13.5781 15.3984V14.6172H14.3594C15.652 14.6172 16.7031 13.566 16.7031 12.2734V5.63281C16.7031 4.34023 15.652 3.28906 14.3594 3.28906H13.5781V2.11719C13.5781 1.2543 12.8785 0.554688 12.0156 0.554688H4.98438ZM5.375 2.11719H11.625C11.8406 2.11719 12.0156 2.29219 12.0156 2.50781V3.28906H4.98438V2.50781C4.98438 2.29219 5.15938 2.11719 5.375 2.11719ZM2.64062 4.85156H14.3594C14.7902 4.85156 15.1406 5.20195 15.1406 5.63281V12.2734C15.1406 12.7043 14.7902 13.0547 14.3594 13.0547H13.5781V10.3203C13.5781 9.45859 12.8773 8.75781 12.0156 8.75781H4.98438C4.12266 8.75781 3.42188 9.45859 3.42188 10.3203V13.0547H2.64062C2.20977 13.0547 1.85938 12.7043 1.85938 12.2734V5.63281C1.85938 5.20195 2.20977 4.85156 2.64062 4.85156ZM12.7969 6.02344C12.5897 6.02344 12.391 6.10575 12.2444 6.25226C12.0979 6.39877 12.0156 6.59749 12.0156 6.80469C12.0156 7.01189 12.0979 7.2106 12.2444 7.35711C12.391 7.50363 12.5897 7.58594 12.7969 7.58594C13.0041 7.58594 13.2028 7.50363 13.3493 7.35711C13.4958 7.2106 13.5781 7.01189 13.5781 6.80469C13.5781 6.59749 13.4958 6.39877 13.3493 6.25226C13.2028 6.10575 13.0041 6.02344 12.7969 6.02344ZM5.375 10.3203H11.625C11.8406 10.3203 12.0156 10.4953 12.0156 10.7109L12.0172 15.0078C12.0172 15.2234 11.8422 15.3984 11.6265 15.3984H5.375C5.15938 15.3984 4.98438 15.2234 4.98438 15.0078V10.7109C4.98438 10.4953 5.15938 10.3203 5.375 10.3203Z" fill="#0D8ED9"/>
</svg>
