<svg width="38" height="38" viewBox="0 0 38 38" fill="none" xmlns="http://www.w3.org/2000/svg">
<g clip-path="url(#clip0_1361_1774)">
<path fill-rule="evenodd" clip-rule="evenodd" d="M15.1985 6.53258C16.3942 7.03046 17.2222 7.97996 17.6395 9.08326C18.3233 10.8913 17.412 12.9113 15.604 13.5951C14.6959 13.9386 13.7342 13.8796 12.9153 13.5067C12.8524 13.5431 12.7852 13.583 12.7138 13.6268C12.1413 13.9781 11.5412 14.4282 11.0573 14.8393C10.818 15.0426 10.6344 15.2132 10.5156 15.3326C10.5052 15.343 10.4957 15.3527 10.4871 15.3615C8.91695 17.9202 8.09375 20.3345 8.09375 23.0601C8.09375 24.2995 8.1536 26.0843 8.44485 27.7323C8.96025 27.291 9.59899 26.9628 10.3443 26.822C11.5338 26.5974 12.542 26.9356 13.1732 27.2576C14.4112 27.8891 15.3469 29.0141 15.8409 30.198C16.3641 31.452 16.6044 33.3611 15.4152 35.126C14.2838 36.8052 12.4154 37.5045 10.6686 37.7519C8.24728 38.0949 6.16441 37.3013 4.64486 35.7998C3.27827 34.4494 2.52491 32.6931 2.07701 31.1975C1.17578 28.188 1.09375 24.7557 1.09375 23.0601C1.09375 18.6458 2.51197 14.9159 4.64962 11.4923L7.61844 13.3459L4.64962 11.4923C4.94447 11.02 5.33297 10.6166 5.55612 10.3926C5.84021 10.1073 6.17215 9.80444 6.52502 9.50464C7.22552 8.9095 8.11613 8.23528 9.05254 7.66063C9.90699 7.13629 11.1371 6.48118 12.4452 6.25963C13.1207 6.14521 14.1362 6.09017 15.1985 6.53258ZM10.1114 30.7303C10.1258 30.7232 10.1339 30.7203 10.1343 30.7206C10.1348 30.7209 10.1276 30.7244 10.1114 30.7303ZM10.4188 15.4346C10.4187 15.4346 10.4219 15.4308 10.429 15.4229C10.4226 15.4306 10.419 15.4345 10.4188 15.4346Z" fill="#1EA0AC"/>
<path fill-rule="evenodd" clip-rule="evenodd" d="M34.6766 6.53258C35.8722 7.03046 36.7002 7.97996 37.1175 9.08326C37.8014 10.8913 36.89 12.9113 35.0821 13.5951C34.1739 13.9386 33.2123 13.8796 32.3933 13.5067C32.3304 13.5431 32.2632 13.583 32.1918 13.6268C31.6193 13.9781 31.0192 14.4282 30.5354 14.8393C30.2961 15.0426 30.1125 15.2132 29.9936 15.3326C29.9832 15.343 29.9737 15.3527 29.9651 15.3615C28.395 17.9202 27.5718 20.3345 27.5718 23.0601C27.5718 24.2995 27.6316 26.0843 27.9229 27.7323C28.4383 27.291 29.077 26.9628 29.8224 26.822C31.0118 26.5974 32.02 26.9356 32.6513 27.2576C33.8893 27.8891 34.8249 29.0141 35.3189 30.198C35.8421 31.452 36.0824 33.3611 34.8933 35.126C33.7618 36.8052 31.8934 37.5045 30.1466 37.7519C27.7253 38.0949 25.6424 37.3013 24.1229 35.7998C22.7563 34.4494 22.0029 32.6931 21.555 31.1975C20.6538 28.188 20.5718 24.7557 20.5718 23.0601C20.5718 18.6458 21.99 14.9159 24.1277 11.4923L27.0965 13.3459L24.1277 11.4923C24.4225 11.02 24.811 10.6166 25.0341 10.3926C25.3182 10.1073 25.6502 9.80444 26.003 9.50464C26.7035 8.9095 27.5942 8.23528 28.5306 7.66063C29.385 7.13629 30.6151 6.48118 31.9232 6.25963C32.5988 6.14521 33.6142 6.09017 34.6766 6.53258ZM29.5894 30.7303C29.6038 30.7232 29.6119 30.7203 29.6124 30.7206C29.6128 30.7209 29.6056 30.7244 29.5894 30.7303ZM29.8969 15.4346C29.8967 15.4346 29.8999 15.4308 29.907 15.4229C29.9006 15.4306 29.897 15.4345 29.8969 15.4346Z" fill="#1EA0AC"/>
</g>
<defs>
<clipPath id="clip0_1361_1774">
<rect width="37" height="37" fill="white" transform="translate(0.59375 0.678711)"/>
</clipPath>
</defs>
</svg>
