<svg width="45" height="41" viewBox="0 0 45 41" fill="none" xmlns="http://www.w3.org/2000/svg">
<path opacity="0.1" d="M25.5171 6.34713C21.3371 5.77164 16.9721 5.15548 14.0006 5.81692C8.69857 6.99716 23.0868 9.63599 24.7593 9.9346C28.4504 10.5937 32.7839 11.0506 36.8096 12.5677C40.6438 14.0126 37.9049 15.474 36.5795 15.7659C28.5701 17.5296 13.1414 12.8252 6.53887 15.7501C5.5508 16.1878 4.38734 16.8604 7.03711 17.9869C12.1531 20.1617 17.5725 21.1583 22.6405 22.6388C26.6286 23.8038 33.4863 26.3985 29.9403 27.9247C27.4129 29.0125 20.8064 27.5836 16.8046 27.2935C13.385 27.0456 8.67183 26.4879 6.06506 27.041C2.11204 27.8796 18.9145 34.1936 20.9339 34.9747" stroke="#1EA0AC" stroke-width="10.5598" stroke-linecap="round"/>
</svg>
