<svg width="21" height="17" viewBox="0 0 21 17" fill="none" xmlns="http://www.w3.org/2000/svg">
<path d="M20.9498 2.32807C20.2051 2.65865 19.4048 2.88129 18.5649 2.98164C19.4225 2.46806 20.0811 1.65426 20.3906 0.684453C19.5887 1.16008 18.6998 1.50584 17.7536 1.69221C16.9971 0.885162 15.9169 0.380859 14.7227 0.380859C12.0418 0.380859 10.0718 2.88213 10.6773 5.4787C7.22734 5.30582 4.1678 3.65292 2.11938 1.14069C1.03151 3.00694 1.55521 5.44834 3.40375 6.68464C2.72404 6.66271 2.08312 6.47634 1.524 6.16516C1.47846 8.08876 2.85728 9.88839 4.85425 10.289C4.26984 10.4475 3.62976 10.4846 2.97872 10.3598C3.50664 12.0093 5.03978 13.2094 6.85797 13.2431C5.11231 14.6118 2.91294 15.2232 0.710205 14.9635C2.54779 16.1416 4.73113 16.8289 7.07555 16.8289C14.7851 16.8289 19.1409 10.3176 18.8777 4.47768C19.689 3.89158 20.3932 3.16043 20.9498 2.32807Z" fill="#1C828F"/>
</svg>
